<svg width="20" height="22" viewBox="0 0 20 22" fill="none" xmlns="http://www.w3.org/2000/svg">
<path d="M14.0001 9.5C14.0001 9.22385 13.6361 9 13.1871 9H4.81313C4.36411 9 4.00012 9.22385 4.00012 9.5C4.00012 9.77615 4.36411 10 4.81313 10H13.1871C13.6361 10 14.0001 9.77615 14.0001 9.5Z" fill="#4C40F7"/>
<path d="M4.84804 12C4.37973 12 4.00012 12.4477 4.00012 13C4.00012 13.5523 4.37973 14 4.84804 14H10.1522C10.6205 14 11.0001 13.5523 11.0001 13C11.0001 12.4477 10.6205 12 10.1522 12H4.84804Z" fill="#4C40F7"/>
<path d="M6.51422 20.2812H3.54789C2.56977 20.2812 1.77401 19.5102 1.77401 18.5625V3.4375C1.77401 2.48978 2.56977 1.71875 3.54789 1.71875H14.4524C15.4305 1.71875 16.2262 2.48978 16.2262 3.4375V8.72266C16.2262 9.19729 16.6233 9.58203 17.1132 9.58203C17.603 9.58203 18.0001 9.19729 18.0001 8.72266V3.4375C18.0001 1.54206 16.4086 0 14.4524 0H3.54789C1.59165 0 0.00012207 1.54206 0.00012207 3.4375V18.5625C0.00012207 20.4579 1.59165 22 3.54789 22H6.51422C7.00408 22 7.40117 21.6153 7.40117 21.1406C7.40117 20.666 7.00408 20.2812 6.51422 20.2812Z" fill="#4C40F7"/>
<path d="M19.275 12.7312C18.3082 11.7564 16.7351 11.7563 15.7689 12.7306L11.2311 17.296C11.1347 17.393 11.0637 17.5124 11.0241 17.6438L10.0358 20.9243C9.94821 21.2152 10.0245 21.531 10.2351 21.7486C10.3928 21.9115 10.607 22 10.8267 22C10.9003 22 10.9745 21.9901 11.0473 21.9697L14.3835 21.0379C14.5207 20.9996 14.6459 20.9261 14.7467 20.8246L19.275 16.2672C20.2418 15.2923 20.2418 13.7062 19.275 12.7312ZM13.7327 19.4901L12.0544 19.9589L12.5455 18.3283L15.6074 15.2478L16.7765 16.4267L13.7327 19.4901ZM18.1067 15.0881L17.9466 15.2492L16.7776 14.0705L16.9372 13.9099C17.2595 13.585 17.7839 13.585 18.1061 13.9099C18.4284 14.2349 18.4284 14.7636 18.1067 15.0881Z" fill="#4C40F7"/>
<path d="M13.1871 5H4.81313C4.36411 5 4.00012 5.4477 4.00012 6C4.00012 6.5523 4.36411 7 4.81313 7H13.1871C13.6361 7 14.0001 6.5523 14.0001 6C14.0001 5.4477 13.6361 5 13.1871 5Z" fill="#4C40F7"/>
</svg>
