<svg width="189" height="70" viewBox="0 0 189 70" fill="none" xmlns="http://www.w3.org/2000/svg">
<path d="M59.955 49.583V25.0829H65.905V49.583H59.955ZM62.72 40.203V35.2329H75.3901V40.203H62.72ZM62.72 30.3329V25.0829H76.8251V30.3329H62.72ZM87.4832 49.933C85.5465 49.933 83.8198 49.513 82.3032 48.673C80.8098 47.833 79.6198 46.6897 78.7332 45.243C77.8698 43.7963 77.4382 42.1396 77.4382 40.273C77.4382 38.4063 77.8698 36.7496 78.7332 35.3029C79.6198 33.8563 80.8098 32.7129 82.3032 31.8729C83.8198 31.0329 85.5465 30.6129 87.4832 30.6129C89.4199 30.6129 91.1349 31.0329 92.6282 31.8729C94.1449 32.7129 95.3349 33.8563 96.1982 35.3029C97.0616 36.7496 97.4933 38.4063 97.4933 40.273C97.4933 42.1396 97.0616 43.7963 96.1982 45.243C95.3349 46.6897 94.1449 47.833 92.6282 48.673C91.1349 49.513 89.4199 49.933 87.4832 49.933ZM87.4832 45.103C88.3232 45.103 89.0699 44.893 89.7232 44.473C90.3765 44.053 90.8899 43.4813 91.2632 42.758C91.6366 42.0346 91.8116 41.2063 91.7882 40.273C91.8116 39.3396 91.6366 38.5113 91.2632 37.7879C90.8899 37.0413 90.3765 36.4579 89.7232 36.0379C89.0699 35.6179 88.3232 35.4079 87.4832 35.4079C86.6432 35.4079 85.8849 35.6179 85.2082 36.0379C84.5549 36.4579 84.0415 37.0413 83.6682 37.7879C83.2948 38.5113 83.1198 39.3396 83.1432 40.273C83.1198 41.2063 83.2948 42.0346 83.6682 42.758C84.0415 43.4813 84.5549 44.053 85.2082 44.473C85.8849 44.893 86.6432 45.103 87.4832 45.103ZM108.155 49.933C106.219 49.933 104.492 49.513 102.975 48.673C101.482 47.833 100.292 46.6897 99.4051 45.243C98.5418 43.7963 98.1101 42.1396 98.1101 40.273C98.1101 38.4063 98.5418 36.7496 99.4051 35.3029C100.292 33.8563 101.482 32.7129 102.975 31.8729C104.492 31.0329 106.219 30.6129 108.155 30.6129C110.092 30.6129 111.807 31.0329 113.3 31.8729C114.817 32.7129 116.007 33.8563 116.87 35.3029C117.734 36.7496 118.165 38.4063 118.165 40.273C118.165 42.1396 117.734 43.7963 116.87 45.243C116.007 46.6897 114.817 47.833 113.3 48.673C111.807 49.513 110.092 49.933 108.155 49.933ZM108.155 45.103C108.995 45.103 109.742 44.893 110.395 44.473C111.049 44.053 111.562 43.4813 111.935 42.758C112.309 42.0346 112.484 41.2063 112.46 40.273C112.484 39.3396 112.309 38.5113 111.935 37.7879C111.562 37.0413 111.049 36.4579 110.395 36.0379C109.742 35.6179 108.995 35.4079 108.155 35.4079C107.315 35.4079 106.557 35.6179 105.88 36.0379C105.227 36.4579 104.713 37.0413 104.34 37.7879C103.967 38.5113 103.792 39.3396 103.815 40.273C103.792 41.2063 103.967 42.0346 104.34 42.758C104.713 43.4813 105.227 44.053 105.88 44.473C106.557 44.893 107.315 45.103 108.155 45.103ZM127.112 49.968C125.502 49.968 124.067 49.5597 122.807 48.743C121.57 47.903 120.59 46.7597 119.867 45.313C119.144 43.843 118.782 42.1746 118.782 40.308C118.782 38.4413 119.144 36.7846 119.867 35.3379C120.59 33.8679 121.582 32.7129 122.842 31.8729C124.102 31.0329 125.549 30.6129 127.182 30.6129C128.022 30.6129 128.827 30.7412 129.597 30.9979C130.367 31.2546 131.067 31.6046 131.697 32.0479C132.327 32.4913 132.841 33.0046 133.237 33.5879C133.634 34.1479 133.867 34.7313 133.937 35.3379L132.607 35.6529V23.6829H138.242V49.583H133.027L132.712 45.348L133.832 45.523C133.762 46.1063 133.529 46.6663 133.132 47.203C132.759 47.7397 132.269 48.218 131.662 48.638C131.056 49.0347 130.355 49.3497 129.562 49.583C128.792 49.8397 127.975 49.968 127.112 49.968ZM128.547 45.313C129.41 45.313 130.157 45.103 130.787 44.683C131.417 44.263 131.896 43.6796 132.222 42.933C132.572 42.1863 132.747 41.3113 132.747 40.308C132.747 39.2813 132.572 38.3946 132.222 37.6479C131.896 36.9013 131.417 36.3179 130.787 35.8979C130.157 35.4779 129.41 35.2679 128.547 35.2679C127.684 35.2679 126.937 35.4779 126.307 35.8979C125.7 36.3179 125.222 36.9013 124.872 37.6479C124.522 38.3946 124.347 39.2813 124.347 40.308C124.347 41.3113 124.522 42.1863 124.872 42.933C125.222 43.6796 125.7 44.263 126.307 44.683C126.937 45.103 127.684 45.313 128.547 45.313ZM150.083 49.933C148.029 49.933 146.244 49.5247 144.728 48.708C143.211 47.868 142.033 46.7363 141.193 45.313C140.353 43.8663 139.933 42.2213 139.933 40.378C139.933 38.9546 140.166 37.6479 140.633 36.4579C141.099 35.2679 141.753 34.2413 142.593 33.3779C143.433 32.4913 144.424 31.8146 145.568 31.3479C146.734 30.8579 148.006 30.6129 149.383 30.6129C150.689 30.6129 151.879 30.8462 152.953 31.3129C154.049 31.7796 154.994 32.4329 155.788 33.2729C156.581 34.1129 157.188 35.1046 157.608 36.2479C158.028 37.3913 158.214 38.6396 158.168 39.993L158.133 41.498H143.328L142.523 38.348H153.583L152.988 39.013V38.313C152.941 37.7296 152.754 37.2163 152.428 36.7729C152.124 36.3063 151.716 35.9446 151.203 35.6879C150.689 35.4313 150.106 35.3029 149.453 35.3029C148.543 35.3029 147.761 35.4896 147.108 35.8629C146.478 36.2129 145.999 36.7379 145.673 37.4379C145.346 38.1146 145.183 38.9546 145.183 39.958C145.183 40.9846 145.393 41.883 145.813 42.653C146.256 43.3996 146.886 43.983 147.703 44.403C148.543 44.823 149.534 45.033 150.678 45.033C151.471 45.033 152.171 44.9163 152.778 44.683C153.408 44.4496 154.084 44.053 154.808 43.493L157.433 47.203C156.709 47.833 155.939 48.3463 155.123 48.743C154.306 49.1397 153.466 49.4313 152.603 49.618C151.763 49.828 150.923 49.933 150.083 49.933ZM166.251 49.933C164.431 49.933 162.821 49.6413 161.421 49.058C160.044 48.4747 158.947 47.693 158.131 46.713L161.526 43.773C162.249 44.4963 163.066 45.033 163.976 45.383C164.886 45.7097 165.749 45.873 166.566 45.873C166.892 45.873 167.184 45.838 167.441 45.768C167.697 45.698 167.907 45.6047 168.071 45.488C168.257 45.348 168.397 45.1963 168.491 45.033C168.584 44.8463 168.631 44.6363 168.631 44.403C168.631 43.9363 168.421 43.5746 168.001 43.318C167.791 43.2013 167.441 43.0613 166.951 42.898C166.461 42.7346 165.831 42.548 165.061 42.338C163.964 42.058 163.007 41.7313 162.191 41.358C161.397 40.9613 160.744 40.5063 160.231 39.993C159.764 39.503 159.402 38.9663 159.146 38.383C158.889 37.7763 158.761 37.0996 158.761 36.3529C158.761 35.4896 158.959 34.7079 159.356 34.0079C159.776 33.3079 160.324 32.7013 161.001 32.1879C161.701 31.6746 162.494 31.2896 163.381 31.0329C164.291 30.7529 165.224 30.6129 166.181 30.6129C167.207 30.6129 168.187 30.7296 169.121 30.9629C170.054 31.1962 170.917 31.5229 171.711 31.9429C172.527 32.3629 173.251 32.8646 173.881 33.4479L170.941 36.7379C170.521 36.3413 170.042 35.9913 169.506 35.6879C168.992 35.3613 168.456 35.1046 167.896 34.9179C167.336 34.7313 166.822 34.6379 166.356 34.6379C166.006 34.6379 165.691 34.6729 165.411 34.7429C165.154 34.7896 164.932 34.8829 164.746 35.0229C164.559 35.1396 164.419 35.2913 164.326 35.4779C164.232 35.6413 164.186 35.8396 164.186 36.0729C164.186 36.3063 164.244 36.5279 164.361 36.7379C164.501 36.9479 164.687 37.1229 164.921 37.2629C165.154 37.4029 165.527 37.5663 166.041 37.7529C166.554 37.9163 167.254 38.1263 168.141 38.383C169.237 38.6863 170.182 39.0246 170.976 39.398C171.769 39.7713 172.399 40.2146 172.866 40.728C173.239 41.1246 173.519 41.5913 173.706 42.128C173.892 42.6413 173.986 43.2013 173.986 43.808C173.986 44.998 173.647 46.0597 172.971 46.993C172.317 47.903 171.407 48.6263 170.241 49.163C169.074 49.6763 167.744 49.933 166.251 49.933ZM177.105 49.583V26.3079H182.705V49.583H177.105ZM173.815 35.8979V30.9979H186.31V35.8979H173.815Z" fill="#25292D"/>
<path d="M43.0264 0.23605C39.8315 2.0165 36.1672 2.23472 32.5772 2.65732C30.8244 2.86516 29.0885 3.12145 27.437 3.63414C27.079 3.74495 26.721 3.86969 26.3698 4.00824C25.3262 4.41699 24.3198 4.95389 23.3708 5.67092C22.4792 6.34288 21.7497 7.13962 21.135 8.01599C20.1556 9.41537 19.4734 11.0261 18.9128 12.6992C17.8895 15.737 17.4201 18.9654 17.5112 22.1764C17.5484 23.4789 17.5687 24.8333 17.8827 26.1045C17.9537 26.3851 18.0212 26.7418 18.234 26.9497C18.5109 27.2233 19.0074 26.9427 18.8959 26.5444C18.0921 23.7352 18.592 20.4514 19.7031 17.7669C20.9797 14.6805 23.4451 12.8446 26.4576 11.7258C27.258 11.4279 28.0753 11.1681 28.9061 10.9222C28.923 10.9153 28.9399 10.9153 28.9568 10.9153C29.1222 10.9153 29.1932 11.1647 29.0209 11.2444C28.0415 11.6982 27.0689 12.1554 26.1435 12.6507C21.6112 15.0755 19.6321 20.7216 21.3309 20.7216C21.4694 20.7216 21.6315 20.6835 21.8172 20.6039C24.438 19.4919 27.5518 19.4816 30.4326 18.9343C31.4458 18.7438 32.4319 18.484 33.3573 18.0891C37.0318 16.5165 39.6593 13.4405 41.2229 9.74108C42.3881 6.98035 42.8406 3.72081 43.7221 0.85266C43.8369 0.485486 43.5836 0.170305 43.2729 0.170305C43.1953 0.166772 43.1109 0.18759 43.0264 0.23605Z" fill="url(#paint0_linear_0_71)"/>
<circle cx="20.4168" cy="37.9168" r="20.4168" fill="url(#paint1_linear_0_71)"/>
<path d="M14.059 58.583V27.9579H21.4965V58.583H14.059ZM17.5153 46.8579V40.6454H33.3529V46.8579H17.5153ZM17.5153 34.5204V27.9579H35.1466V34.5204H17.5153Z" fill="white"/>
<defs>
<linearGradient id="paint0_linear_0_71" x1="43.7502" y1="27.0588" x2="15.0521" y2="24.1263" gradientUnits="userSpaceOnUse">
<stop stop-color="#F86161"/>
<stop offset="1" stop-color="#FFB23F"/>
</linearGradient>
<linearGradient id="paint1_linear_0_71" x1="40.8335" y1="58.3335" x2="-3.78525" y2="53.6632" gradientUnits="userSpaceOnUse">
<stop stop-color="#F86161"/>
<stop offset="1" stop-color="#FFB23F"/>
</linearGradient>
</defs>
</svg>
