<svg width="24" height="24" viewBox="0 0 24 24" fill="none" xmlns="http://www.w3.org/2000/svg">
<path d="M19.0028 16.9973C17.3527 16.9973 16.0103 18.3398 16.0103 19.9898C16.0103 21.6399 17.3528 22.9823 19.0028 22.9823C20.6529 22.9823 21.9953 21.6399 21.9953 19.9898C21.9953 18.3398 20.6529 16.9973 19.0028 16.9973ZM19.0028 21.1868C18.3427 21.1868 17.8058 20.65 17.8058 19.9898C17.8058 19.3297 18.3427 18.7928 19.0028 18.7928C19.663 18.7928 20.1998 19.3297 20.1998 19.9898C20.1998 20.65 19.663 21.1868 19.0028 21.1868Z" fill="white"/>
<path d="M23.8092 5.43165C23.6392 5.21411 23.3786 5.08721 23.1024 5.08721H5.54159L4.73361 1.70657C4.63695 1.3026 4.27573 1.01741 3.86037 1.01741H0.897755C0.401909 1.01736 0 1.41927 0 1.91512C0 2.41097 0.401909 2.81287 0.897755 2.81287H3.15175L6.06946 15.0212C6.16611 15.4255 6.52733 15.7104 6.9427 15.7104H20.9179C21.3305 15.7104 21.6902 15.4291 21.7893 15.0287L23.9738 6.20069C24.0399 5.93261 23.9792 5.6492 23.8092 5.43165ZM20.2155 13.9149H7.65131L5.97069 6.88273H21.9553L20.2155 13.9149Z" fill="white"/>
<path d="M8.13928 16.9973C6.48917 16.9973 5.14676 18.3398 5.14676 19.9898C5.14676 21.6399 6.48922 22.9823 8.13928 22.9823C9.78933 22.9823 11.1318 21.6399 11.1318 19.9898C11.1318 18.3398 9.78933 16.9973 8.13928 16.9973ZM8.13928 21.1868C7.47913 21.1868 6.94227 20.65 6.94227 19.9898C6.94227 19.3297 7.47913 18.7928 8.13928 18.7928C8.79942 18.7928 9.33628 19.3297 9.33628 19.9898C9.33628 20.65 8.79942 21.1868 8.13928 21.1868Z" fill="white"/>
</svg>
